<svg id="Layer_1" xmlns="http://www.w3.org/2000/svg" viewBox="0 0 145 60"><style>.st0{fill-rule:evenodd;clip-rule:evenodd;fill:#0a0a0a}</style><path class="st0" d="M0 40.3c.5-1.2.9-2.5 1.4-3.7C3.3 31.5 5.1 26.4 7 21.2c.5-1.3 1.3-1.8 2.6-1.8h15.2c.5 0 .5 0 .5.5-.1 1.7-.8 3.1-2.1 4.3-.2.2-.4.2-.6.2H12.1c-.7 0-1 .2-1.2.8-1.8 5-3.7 10-5.5 15-.1.3-.2.4-.6.4H.4c-.2 0-.3 0-.5-.1.1 0 .1-.1.1-.2z"/><path d="M145 26.5c-.2-.4 0-.7-.1-1.1h.1v1.1z" fill-rule="evenodd" clip-rule="evenodd" fill="#5f8caf"/><path d="M145 25.4c-.1-.1-.1-.3-.1-.4h.1v.4z" fill-rule="evenodd" clip-rule="evenodd" fill="#aac1d2"/><path d="M88.6 19.4c1.6 0 3.2-.1 4.7 0 2.1.1 3.9.8 5.3 2.5s1.6 3.7 1.1 5.8c-.3 1.5-1 2.9-1.5 4.3-1 2.8-2 5.5-3 8.3-.1.3-.2.4-.6.4h-4.4c-.5 0-.6-.1-.4-.6 1.6-4.4 3.2-8.7 4.8-13.1.1-.4.3-.8.2-1.2-.1-.8-.7-1.3-1.6-1.3h-5.7c-1.1 0-2 .7-2.4 1.7-1.5 4-2.9 8.1-4.4 12.1-.2.7-.5 1.4-.7 2.1-.1.2-.2.3-.5.3h-4.4c-.6 0-.6-.1-.4-.6 1.3-3.7 2.7-7.4 4-11.1 1-2.6 1.9-5.3 2.9-7.9.4-1 1.3-1.7 2.4-1.7h4.6zm19 8.7h8c.4 0 .5.1.4.5-.3 1.4-.9 2.5-1.9 3.5-.2.2-.4.2-.6.2h-7.1c-.3 0-.4.1-.5.3-.9 2.6-1.9 5.1-2.8 7.7-.1.3-.3.4-.6.4h-4.4c-.5 0-.5-.1-.4-.5l6.6-18.3c.5-1.5 2.1-2.5 3.7-2.5h16.9c.4 0 .5.1.5.4-.1 1.7-.8 3.1-2 4.3-.2.2-.5.3-.8.3h-13.1c-.6 0-.7.1-.9.7-.3 1-.6 2-1 3zM69.2 40.7h-2c-.8 0-.8 0-.5-.8.9-2.4 1.7-4.8 2.6-7.2 1.6-4.3 3.2-8.7 4.8-13 .1-.3.3-.4.6-.4h4.4c.5 0 .5.1.4.5-2.5 6.8-5 13.6-7.4 20.5-.1.3-.2.3-.5.3-.9.1-1.6.1-2.4.1zM145 25.4V25c-.1-1-.5-2-1.1-2.9-1.3-1.8-3.2-2.6-5.4-2.7-2.2-.1-4.4 0-6.6 0-2.6 0-5.1 1.8-6 4.2-.7 1.9-1.4 3.7-2 5.6-.5 1.4-1.1 2.8-1.2 4.4-.2 2.5.8 4.9 3.2 6.3 1.2.6 2.5.9 3.8.9h6.1c2.6 0 5.2-1.8 6-4.3.6-1.7 1.3-3.5 1.9-5.2.4-1.2 1-2.4 1.2-3.6.1-.3 0-.5.2-.8v-.4c-.2-.4-.1-.7-.1-1.1zm-5.7 2.8c-.7 2-1.4 3.9-2.1 5.9-.3.9-1.3 1.6-2.3 1.6h-2.2c-.9 0-1.7.1-2.6 0-1.7-.2-2.6-1.6-2.1-3.2.5-1.5 1-3 1.6-4.5l.6-1.8c.4-1 1.1-1.5 2.1-1.6 1.5-.1 3-.1 4.5 0 2.1 0 3.2 1.6 2.5 3.6z" fill="#2c6996" fill-rule="evenodd" clip-rule="evenodd"/><path class="st0" d="M47.4 21.1c-.3-1.1-1.3-1.8-2.6-1.8H28.4c-.3 0-.4.1-.4.4 0 .3 0 .7-.1 1.1-.2 1.2-.7 2.3-1.4 3.3-.1.1-.2.2-.1.3 0 .1.2.1.3.1h13.5c.7.1 1 .6.8 1.3-.1.2-.2.5-.3.7-.1.3-.2.4-.5.4H25.9c-1.5 0-3.1 1-3.6 2.4-1 2.6-2 5.3-2.9 8-.4 1.1-.3 2.1.6 2.9.6.5 1.3.6 2 .6h18.5c.3 0 .4-.1.5-.4.8-2.3 1.7-4.7 2.6-7 1.2-3.4 2.5-6.8 3.7-10.2.2-.7.3-1.4.1-2.1zm-8.8 11.2c-.4 1-.8 2.1-1.1 3.1-.1.2-.2.3-.4.3H26.8c-.9 0-1.2-.5-.9-1.4.1-.4.3-.8.4-1.2.3-.8.8-1.1 1.6-1.1h10.5c.3-.1.3 0 .2.3zm30.1-11.7c-.9-.9-2.1-1.2-3.3-1.2H49.5c-.3 0-.4.2-.2.4.1.2.2.4.3.7.5 1.2.3 2.3-.2 3.4-2 5.4-3.9 10.8-5.9 16.3-.2.5-.1.6.4.6h17.2c1.7 0 3.2-1.1 3.8-2.7 1.1-2.9 2.1-5.9 3.2-8.8.5-1.5 1.2-3 1.6-4.5.4-1.6.2-3.1-1-4.2zm-4.5 4.9c-1 2.8-2.1 5.7-3.1 8.5-.4 1-1.3 1.6-2.4 1.6H51c-.2 0-.3 0-.2-.3 1.3-3.5 2.6-7.1 3.9-10.6.1-.2.2-.3.4-.3h8.4c.7 0 .9.4.7 1.1z"/></svg>